<svg width="148mm" height="105mm" viewBox="0 0 148 105" xml:space="preserve" xmlns="http://www.w3.org/2000/svg"><defs><path id="a" d="M79.874 382.256h581.942v265.297H79.874z"/></defs><g style="display:inline"><path style="font-size:53.3333px;white-space:pre;shape-inside:url(#a);display:inline;fill:#e13f4b;fill-opacity:1;stroke:none;stroke-width:.265;stroke-dasharray:none;stroke-opacity:1" d="M56.801 52.52c-.423 0-.776.088-1.058.267a1.88 1.88 0 0 0-.677.706c-.17.301-.292.658-.367 1.072-.075.414-.113.86-.113 1.34v10.5h.776v-6.873h2.088V58.8h-2.088v-1.524h.678c.884 0 1.575-.25 2.074-.748.499-.499.748-1.167.748-2.004 0-.263-.043-.517-.127-.762a1.737 1.737 0 0 0-.381-.635 1.685 1.685 0 0 0-.65-.438 2.211 2.211 0 0 0-.903-.169zm31.723.098v3.217c-.217-.028-.48-.056-.791-.084-.31-.029-.663-.043-1.058-.043-.499 0-.95.094-1.355.282a3.158 3.158 0 0 0-1.044.777 3.65 3.65 0 0 0-.663 1.17c-.15.443-.226.927-.226 1.454 0 .508.066.983.197 1.425.132.433.325.814.58 1.144.262.329.577.588.944.776.377.188.805.282 1.284.282.508 0 .955-.108 1.34-.325.396-.216.693-.522.89-.917.057.235.141.456.254.663a1.7 1.7 0 0 0 .494.55l.48-.465c-.367-.395-.55-.955-.55-1.68v-8.226zm-48.571.014v8.227c0 .197.01.395.028.593.028.197.07.39.126.578.066.188.156.367.27.536.112.17.258.315.436.437l.48-.465a1.911 1.911 0 0 1-.423-.706 2.995 2.995 0 0 1-.141-.973v-8.227zm20.179 0v8.227c0 .197.009.395.028.593.028.197.07.39.127.578.066.188.155.367.268.536.113.17.259.315.437.437l.48-.465a1.911 1.911 0 0 1-.423-.706 2.994 2.994 0 0 1-.141-.973v-8.227zm-3.33.621c.423 0 .738.127.945.381.207.254.31.55.31.889 0 .263-.037.517-.112.762a1.572 1.572 0 0 1-.353.635 1.71 1.71 0 0 1-.621.451c-.254.113-.564.17-.931.17h-.678v-.678c0-.348.019-.677.057-.987a2.91 2.91 0 0 1 .211-.833c.113-.244.259-.437.438-.579.188-.14.432-.21.733-.21zm9.807 2.455c-.527 0-1.007.094-1.44.282a3.346 3.346 0 0 0-1.114.777c-.301.329-.536.719-.706 1.17-.169.443-.254.927-.254 1.454 0 .527.085 1.011.254 1.453.17.443.405.829.706 1.158.31.32.682.569 1.114.748.433.178.913.268 1.44.268.526 0 1.001-.09 1.425-.268.433-.188.8-.443 1.1-.763.311-.329.551-.719.72-1.17.17-.452.254-.941.254-1.468a3.99 3.99 0 0 0-.254-1.44 3.302 3.302 0 0 0-.72-1.156 3.044 3.044 0 0 0-1.1-.763 3.473 3.473 0 0 0-1.425-.282zm8.226 0c-.47 0-.87.108-1.199.325-.33.207-.616.527-.86.96a2.369 2.369 0 0 0-.269-.678A1.807 1.807 0 0 0 72 55.75l-.48.465c.189.198.33.433.424.706.094.272.14.597.14.973v4.982h.777v-5.038c.244-.433.522-.771.832-1.016.31-.245.66-.367 1.045-.367.131 0 .25.005.353.014.113.009.211.024.296.042.103.02.197.033.282.043v-.734a5.523 5.523 0 0 0-.254-.056 1.789 1.789 0 0 0-.268-.043 3.585 3.585 0 0 0-.31-.014zm4.347 0c-.48 0-.946.09-1.397.268-.442.18-.8.39-1.073.635l.381.593a4.18 4.18 0 0 1 .946-.522c.386-.16.767-.24 1.143-.24.508 0 .88.137 1.115.41.235.272.353.7.353 1.284v.79h-1.37c-.366 0-.729.032-1.086.098a2.848 2.848 0 0 0-.945.353c-.282.16-.513.371-.692.635-.169.263-.254.593-.254.988 0 .33.057.62.17.875.112.254.268.466.465.635.207.17.447.296.72.38.282.085.583.128.903.128.555 0 1.016-.104 1.383-.31.367-.208.64-.49.818-.847.066.216.156.423.268.62.113.189.268.358.466.508l.48-.465c-.367-.395-.55-.955-.55-1.68V57.98c0-.715-.18-1.27-.537-1.665-.348-.405-.917-.607-1.707-.607zm15.592 0c-.527 0-1.006.094-1.439.282a3.346 3.346 0 0 0-1.115.777c-.3.329-.536.719-.705 1.17-.17.443-.254.927-.254 1.454 0 .527.085 1.011.254 1.453.17.443.404.829.705 1.158.31.32.682.569 1.115.748.433.178.912.268 1.44.268.526 0 1.001-.09 1.425-.268.432-.188.8-.443 1.1-.763.31-.329.55-.719.72-1.17.17-.452.254-.941.254-1.468a3.99 3.99 0 0 0-.254-1.44 3.302 3.302 0 0 0-.72-1.156 3.045 3.045 0 0 0-1.1-.763 3.473 3.473 0 0 0-1.426-.282zm8.227 0c-.47 0-.87.108-1.2.325-.328.207-.616.527-.86.96a2.369 2.369 0 0 0-.268-.678 1.804 1.804 0 0 0-.508-.564l-.48.465c.188.198.33.433.423.706.094.272.141.597.141.973v4.982h.777v-5.038c.244-.433.522-.771.832-1.016.31-.245.659-.367 1.044-.367.132 0 .25.005.353.014.113.009.212.024.297.042.103.02.197.033.282.043v-.734a5.523 5.523 0 0 0-.254-.056 1.789 1.789 0 0 0-.268-.043 3.585 3.585 0 0 0-.31-.014zm4.347 0c-.48 0-.946.09-1.398.268-.442.18-.8.39-1.072.635l.38.593a4.18 4.18 0 0 1 .947-.522c.385-.16.766-.24 1.143-.24.508 0 .88.137 1.114.41.236.272.353.7.353 1.284v.79h-1.369c-.366 0-.729.032-1.086.098a2.848 2.848 0 0 0-.946.353c-.282.16-.512.371-.69.635-.17.263-.255.593-.255.988 0 .33.056.62.17.875.112.254.267.466.465.635.207.17.447.296.72.38.282.085.583.128.903.128.555 0 1.016-.104 1.382-.31.367-.208.64-.49.819-.847.066.216.155.423.268.62.113.189.268.358.466.508l.48-.465c-.368-.395-.55-.955-.55-1.68V57.98c0-.715-.18-1.27-.537-1.665-.348-.405-.917-.607-1.707-.607zm-40.74.734c.405 0 .772.07 1.101.211.339.132.626.325.861.58.235.253.414.559.537.916.131.349.197.739.197 1.171 0 .443-.066.847-.197 1.214a2.685 2.685 0 0 1-.537.932 2.589 2.589 0 0 1-.86.606c-.33.141-.697.212-1.101.212-.414 0-.786-.07-1.115-.212a2.607 2.607 0 0 1-.861-.593 2.711 2.711 0 0 1-.55-.917 3.818 3.818 0 0 1-.184-1.213c0-.433.061-.828.184-1.186.131-.357.315-.663.55-.917a2.61 2.61 0 0 1 .86-.593c.33-.14.702-.21 1.116-.21zm20.081 0c.395 0 .757.019 1.086.056l.749.085v3.64c0 .349-.067.655-.198.918a1.995 1.995 0 0 1-.508.635c-.198.17-.423.296-.677.381a2.358 2.358 0 0 1-.749.127 1.94 1.94 0 0 1-.973-.24 2.395 2.395 0 0 1-.692-.65 3.217 3.217 0 0 1-.409-.93 4.818 4.818 0 0 1-.127-1.115c0-.433.057-.828.17-1.186a2.79 2.79 0 0 1 .507-.917c.226-.254.49-.451.79-.593.311-.14.655-.21 1.031-.21zm8.085 0c.405 0 .772.07 1.101.211.339.132.626.325.861.58.235.253.414.559.536.916.132.349.198.739.198 1.171 0 .443-.066.847-.198 1.214a2.685 2.685 0 0 1-.536.932 2.588 2.588 0 0 1-.861.606c-.33.141-.696.212-1.1.212-.415 0-.787-.07-1.116-.212a2.603 2.603 0 0 1-.86-.593 2.712 2.712 0 0 1-.55-.917 3.818 3.818 0 0 1-.184-1.213c0-.433.062-.828.184-1.186.132-.357.315-.663.55-.917.245-.254.53-.451.86-.593.33-.14.701-.21 1.115-.21zm-47.096.39a2.798 2.798 0 0 1-.178.097c-.156.071-.312.142-.466.216l-.077.03c.106.252.164.568.164.96v.79h-1.369c-.366 0-.728.034-1.086.1a2.851 2.851 0 0 0-.945.352c-.283.16-.513.372-.692.635-.17.263-.254.593-.254.988 0 .33.057.62.17.875.112.254.267.466.465.635.207.17.447.296.72.38.282.086.583.128.903.128.555 0 1.016-.104 1.383-.31a1.97 1.97 0 0 0 .818-.847c.066.216.155.423.268.62.113.189.268.358.466.509l.48-.466c-.367-.395-.55-.955-.55-1.68V57.98c0-.448-.08-.826-.22-1.149zm-1.926 2.813h1.37v.833c-.01.292-.071.55-.184.776a1.599 1.599 0 0 1-.466.564 2.16 2.16 0 0 1-.649.353 2.676 2.676 0 0 1-.79.113c-.461 0-.819-.094-1.073-.282-.254-.198-.38-.532-.38-1.002 0-.282.06-.513.183-.691.132-.18.301-.316.508-.41.207-.103.437-.169.691-.197.264-.038.527-.057.79-.057zm33.529 0h1.369v.833c-.01.292-.071.55-.184.776a1.6 1.6 0 0 1-.466.564 2.16 2.16 0 0 1-.649.353 2.672 2.672 0 0 1-.79.113c-.461 0-.818-.094-1.072-.282-.254-.198-.381-.532-.381-1.002 0-.282.06-.513.183-.691.132-.18.301-.316.508-.41.207-.103.438-.169.692-.197.263-.038.526-.057.79-.057zm28.165 0h1.37v.833c-.01.292-.071.55-.184.776a1.599 1.599 0 0 1-.466.564c-.188.151-.405.268-.65.353a2.672 2.672 0 0 1-.79.113c-.46 0-.818-.094-1.072-.282-.254-.198-.38-.532-.38-1.002 0-.282.06-.513.183-.691.132-.18.3-.316.508-.41.207-.103.437-.169.691-.197.264-.038.527-.057.79-.057z"/><path style="display:inline;fill:none;stroke:#e13f4b;stroke-width:.8;stroke-linecap:round;stroke-linejoin:round;stroke-dasharray:none;stroke-opacity:1" d="M56.59 51.42s-4.156 2.406-5.998 3.496c-.903.535-1.75 1.171-2.69 1.637-.765.38-1.547.768-2.385.936-.734.146-1.543.308-2.245.046a1.38 1.38 0 0 1-.725-.654c-.15-.301-.15-.674-.093-1.006.122-.719.746-1.278.912-1.988.06-.258.13-.552.023-.795-.249-.567-.963-.781-1.403-1.216-.542-.535-1.21-1.011-1.52-1.707a2.067 2.067 0 0 1-.14-1.263c.084-.376.3-.75.608-.982.381-.29 1.192-.374 1.38-.398.186-.023 1.464.03 2.174.187.648.143 1.871.678 1.871.678M57.07 51.057s1.847-1.777 2.035-1.917c.187-.14 2.4-2.725 2.666-3.11.374-.546 2-2.759 2.806-4.374.6-1.202 1.233-2.424 1.497-3.742.214-1.07.286-2.209.046-3.274-.232-1.034-.661-2.096-1.403-2.853-.356-.363-.721-.614-1.216-.734-.454-.11-1.103-.126-1.543.033-.438.157-.788.523-1.076.888-.527.668-1.123 2.292-1.123 2.292l-.019.028"/><path style="display:inline;fill:none;stroke:#e13f4b;stroke-width:.8;stroke-linecap:round;stroke-linejoin:round;stroke-dasharray:none;stroke-opacity:1" d="M56.579 51.432c-.65.393-1.395.688-2.152.748-.978.078-2.291-.327-2.9-.515-.608-.187-2.087-.735-2.946-1.403-.457-.355-.851-.611-1.322-1.083-.439-.44-.903-.859-1.223-1.211-.29-.32-.63-.82-1.015-1.351-.427-.589-.734-1.58-.817-1.992a3.806 3.806 0 0 1 .074-1.846c.237-.803.678-1.557 1.216-2.199.598-.713 1.364-1.292 2.169-1.76.896-.521 1.75-.766 2.414-1.422.394-.39.706-.89.86-1.422.465-1.61 1.246-2.71 1.339-2.88.128-.233 1.426-2.127 3.063-2.642.224-.07 1.04-.237 1.684-.047 1.014.3 1.66 1.26 2.128 2.222.6 1.23.868 2.962.983 4.49.107 1.434-.088 2.879-.281 4.303-.279 2.052-.636 3.929-1.263 6.13-.31 1.092-.584 2.188-1.216 3.131-.203.303-.484.56-.795.749z"/><path style="fill:none;stroke:#e13f4b;stroke-width:.5;stroke-linecap:round;stroke-linejoin:round;stroke-dasharray:none;stroke-opacity:1" d="M81.731 125.777c-.041.033-.082.066-.483.31-.401.246-1.162.704-1.953 1.056-.79.353-1.612.601-2.434.85M80.334 124.718c-1.13-.193-2.26-.386-3.34-.868-1.08-.483-2.111-1.254-3.142-2.026" transform="translate(-31.745 -72.503)"/><path style="display:inline;fill:none;stroke:#e13f4b;stroke-width:.5;stroke-linecap:round;stroke-linejoin:round;stroke-dasharray:none;stroke-opacity:1" d="M93.895 114.872c.632-1.286 1.263-2.572 1.57-3.73a7.749 7.749 0 0 0 .196-2.966c-.098-.78-.277-1.31-.456-1.84" transform="translate(-31.745 -72.503)"/><path style="fill:none;stroke:#e13f4b;stroke-width:.5;stroke-linecap:round;stroke-linejoin:round;stroke-dasharray:none;stroke-opacity:1" d="M85.055 122.637c-1.161-.437-2.323-.873-3.317-1.583-.994-.71-1.82-1.691-2.646-2.674M89.405 116.93c.257-1.94.514-3.882.53-5.293.016-1.41-.21-2.291-.452-2.946-.242-.655-.499-1.084-.756-1.513M85.944 120.555c-1.064-.795-2.128-1.59-2.861-2.569-.734-.978-1.138-2.138-1.345-2.8-.207-.662-.218-.824-.228-.987" transform="translate(-31.745 -72.503)"/><path style="fill:none;stroke:#e13f4b;stroke-width:.5;stroke-linecap:round;stroke-linejoin:round;stroke-dasharray:none;stroke-opacity:1" d="M87.585 119.314c.05-.303.1-.606.231-1.592.13-.986.34-2.654.294-3.911-.046-1.258-.349-2.104-.565-2.605-.217-.502-.347-.659-.477-.816" transform="translate(-32.175 -72.057)"/></g></svg>