<svg version="1.1" id="Layer_1" xmlns:x="ns_extend;" xmlns:i="ns_ai;" xmlns:graph="ns_graphs;" xmlns="http://www.w3.org/2000/svg" xmlns:xlink="http://www.w3.org/1999/xlink" x="0px" y="0px" viewBox="0 0 103.3 49" style="enable-background:new 0 0 103.3 49;" xml:space="preserve">
 <metadata>
  <sfw xmlns="ns_sfw;">
   <slices>
   </slices>
   <sliceSourceBounds bottomLeftOrigin="true" height="49" width="103.3" x="0" y="0">
   </sliceSourceBounds>
  </sfw>
 </metadata>
 <path d="M11.1,3.8v13.9c0,0,4.9,0,7.5-0.2c2.1-0.4,2.4-0.6,2.8-2.6l0.8-3h2.2L24,18.4l0.2,6.8H22l-0.6-2.6c-0.6-1.9-1.3-2.3-2.8-2.4
	C16.7,20,11.1,20,11.1,20v11.7c0,2.2,1.1,3.2,3.8,3.2h7.9c2.4,0,4.9-0.2,6.4-3.8l2-4.5h1.9c-0.2,0.9-1.1,9.2-1.3,11.1
	c0,0-7.1-0.2-10.1-0.2H8.1l-8.1,0v-2l2.6-0.6c1.9-0.4,2.5-0.9,2.5-2.4c0,0,0.2-5.1,0.2-13.5S5.1,5.5,5.1,5.5c0-1.7-0.6-2.1-2.5-2.4
	L0,2.4v-2l7.9,0.2h15C25.9,0.5,31,0,31,0s-0.2,3.2-0.4,10.7h-2.1l-0.8-2.6C27,4.7,25.9,3,23.8,3H12C11.1,3,11.1,3.2,11.1,3.8z
	 M41.5,5.2h2.3v7.9l7.7-0.4l-0.4,3.6l-7.5-0.6v13.9c0,3.9,1.3,5.5,3.6,5.5c2,0,3.6-1.1,4.1-2.1l1.1,1.3c-1.1,2.6-4.3,3.9-7.3,3.9
	c-3.7,0-6.8-2.2-6.8-6.6V15.9h-4.5V14C37.6,13.7,40.4,11.4,41.5,5.2z M57.7,29.5l1.5,3.6c0.6,1.5,1.9,3,4.9,3c3.2,0,4.5-1.7,4.5-3.8
	c0-6.4-12.6-4.5-12.6-13.2c0-4.9,3.9-7.2,9-7.2c2.3,0,5.6,0.4,7.3,1.1c-0.4,1.9-0.6,4.3-0.6,6.2l-1.9,0.2l-1.3-3.8
	c-0.4-0.9-1.9-1.7-3.8-1.7c-2.3,0-4.5,0.9-4.5,3.4c0,5.8,13,4.5,13,13.2c0,4.9-4.3,7.5-9.6,7.5c-3.9,0-7.9-1.5-7.9-1.5
	c0.4-2.2,0.2-4.7,0-7.1C55.8,29.5,57.7,29.5,57.7,29.5z M72.3,47.5c0.6-2.1,0.9-4.7,1.3-7.1l2.1-0.2l0.8,3.9
	c0.2,0.9,0.7,1.7,2.2,1.7c2.4,0,5.6-1.5,8.7-6.8c-1.3-3.2-5.3-13.5-8.9-21.4c-0.9-2.1-1.1-2.3-2.4-2.6l-1-0.4v-1.9l5.7,0.2l6.9-0.4
	v1.9L86,14.8c-1.3,0.2-1.9,0.9-1.9,1.7c0,0.2,0,0.4,0.2,0.8c0.4,1.1,3.4,9.6,5.6,15.2c1.9-3.9,5.4-12.8,6-14.3
	c0.2-0.8,0.4-0.9,0.4-1.5c0-1-0.6-1.5-1.9-1.9l-1.3-0.4v-1.9l5.3,0.2l4.9-0.2v1.9l-0.9,0.7c-1.9,0.8-2.1,0.9-2.8,2.5L91.3,37
	c-4.9,11.1-10,12-13.5,12C75.5,49,73.8,48.4,72.3,47.5z">
 </path>
</svg>