<svg width="265.551" height="137.932" viewBox="0 0 70.26 36.495" xmlns="http://www.w3.org/2000/svg">
    <defs>
        <path id="prefix__a" d="M79.874 382.256h581.942v265.297H79.874z" />
    </defs>
    <path
        d="M16.92 22.61c-.423 0-.776.088-1.058.267a1.88 1.88 0 00-.677.706c-.169.301-.291.659-.367 1.072-.075.414-.113.861-.113 1.34v10.5h.776v-6.872h2.089v-.734H15.48v-1.524h.678c.884 0 1.576-.25 2.074-.748.499-.499.748-1.167.748-2.004 0-.263-.043-.517-.127-.762a1.737 1.737 0 00-.381-.635 1.685 1.685 0 00-.65-.437 2.211 2.211 0 00-.902-.17zm31.723.098v3.218c-.217-.029-.48-.057-.791-.085-.31-.028-.663-.043-1.058-.043-.499 0-.95.094-1.355.283a3.158 3.158 0 00-1.044.776 3.65 3.65 0 00-.663 1.17c-.15.443-.226.928-.226 1.454 0 .508.066.984.197 1.426.132.432.325.813.58 1.143.263.329.578.588.944.776.377.188.805.282 1.285.282.508 0 .954-.108 1.34-.324.395-.217.692-.523.89-.918.056.235.14.456.253.663a1.7 1.7 0 00.494.55l.48-.465c-.367-.395-.55-.955-.55-1.68v-8.226zm-48.571.014v8.227c0 .198.01.395.028.593.029.197.07.39.127.578.065.188.155.367.268.536.113.17.259.315.437.438l.48-.466a1.911 1.911 0 01-.423-.705 2.995 2.995 0 01-.14-.974v-8.227zm20.18 0v8.227c0 .198.008.395.027.593.028.197.07.39.127.578.066.188.155.367.268.536.113.17.259.315.438.438l.48-.466a1.911 1.911 0 01-.424-.705 2.994 2.994 0 01-.141-.974v-8.227zm-3.331.621c.423 0 .738.127.945.381.207.254.31.55.31.889 0 .263-.037.518-.112.762a1.572 1.572 0 01-.353.635 1.71 1.71 0 01-.62.451c-.255.113-.565.17-.932.17h-.678v-.678c0-.348.02-.677.057-.987a2.91 2.91 0 01.212-.833c.112-.244.258-.437.437-.578.188-.141.433-.212.734-.212zm9.807 2.455c-.527 0-1.007.094-1.44.283a3.346 3.346 0 00-1.114.776c-.301.33-.536.72-.705 1.17-.17.443-.255.928-.255 1.454 0 .527.085 1.011.255 1.454.169.442.404.828.705 1.157.31.32.682.57 1.115.748.432.179.912.268 1.439.268s1.002-.09 1.425-.268c.433-.188.8-.442 1.1-.762.311-.33.551-.72.72-1.171.17-.452.254-.941.254-1.468a3.99 3.99 0 00-.253-1.44 3.302 3.302 0 00-.72-1.156 3.044 3.044 0 00-1.101-.762 3.473 3.473 0 00-1.425-.283zm8.227 0c-.47 0-.87.109-1.2.325-.329.207-.616.527-.86.96a2.369 2.369 0 00-.268-.678 1.807 1.807 0 00-.509-.564l-.48.465c.189.198.33.433.424.706.094.273.14.597.14.973v4.982h.777v-5.038c.245-.433.522-.771.833-1.016.31-.244.658-.367 1.044-.367.132 0 .25.005.353.014.113.01.211.024.296.043.103.018.197.033.282.042v-.734a5.523 5.523 0 00-.254-.056 1.789 1.789 0 00-.268-.043 3.585 3.585 0 00-.31-.013zm4.346 0c-.48 0-.946.09-1.397.269-.442.178-.8.39-1.072.634l.38.593a4.18 4.18 0 01.946-.522c.386-.16.767-.24 1.143-.24.508 0 .88.137 1.115.41.235.272.353.7.353 1.284v.79h-1.37c-.366 0-.728.033-1.086.099a2.848 2.848 0 00-.945.352c-.282.16-.513.372-.692.635-.169.263-.254.593-.254.988 0 .33.057.621.17.875.113.254.268.466.465.635.207.17.447.296.72.381.282.085.583.127.903.127.555 0 1.016-.104 1.383-.31.367-.207.64-.49.818-.847.066.216.156.423.269.62.113.189.268.358.465.509l.48-.466c-.367-.395-.55-.955-.55-1.68V28.07c0-.715-.179-1.27-.536-1.665-.349-.404-.918-.607-1.708-.607zm15.592 0c-.526 0-1.006.094-1.439.283a3.346 3.346 0 00-1.114.776c-.301.33-.536.72-.706 1.17-.17.443-.254.928-.254 1.454 0 .527.085 1.011.254 1.454.17.442.405.828.706 1.157.31.32.682.57 1.114.748.433.179.913.268 1.44.268.526 0 1.001-.09 1.425-.268.432-.188.8-.442 1.1-.762.31-.33.55-.72.72-1.171.17-.452.255-.941.255-1.468a3.99 3.99 0 00-.255-1.44 3.302 3.302 0 00-.72-1.156 3.045 3.045 0 00-1.1-.762 3.473 3.473 0 00-1.426-.283zm8.227 0c-.47 0-.87.109-1.199.325-.33.207-.616.527-.861.96a2.369 2.369 0 00-.268-.678 1.804 1.804 0 00-.508-.564l-.48.465c.188.198.33.433.424.706.094.273.14.597.14.973v4.982h.777v-5.038c.244-.433.522-.771.832-1.016.31-.244.659-.367 1.045-.367.131 0 .25.005.353.014.113.01.211.024.296.043.103.018.197.033.282.042v-.734a5.523 5.523 0 00-.254-.056 1.789 1.789 0 00-.268-.043 3.585 3.585 0 00-.31-.013zm4.347 0c-.48 0-.946.09-1.397.269-.443.178-.8.39-1.073.634l.381.593a4.18 4.18 0 01.946-.522c.385-.16.767-.24 1.143-.24.508 0 .88.137 1.115.41.235.272.352.7.352 1.284v.79h-1.368c-.367 0-.73.033-1.087.099a2.848 2.848 0 00-.945.352c-.283.16-.513.372-.692.635-.17.263-.254.593-.254.988 0 .33.057.621.17.875.112.254.268.466.465.635.207.17.447.296.72.381.282.085.583.127.903.127.555 0 1.016-.104 1.383-.31.366-.207.64-.49.818-.847.066.216.155.423.268.62.113.189.268.358.466.509l.48-.466c-.367-.395-.55-.955-.55-1.68V28.07c0-.715-.18-1.27-.537-1.665-.348-.404-.917-.607-1.707-.607zm-40.74.734c.405 0 .772.07 1.101.212.34.131.626.324.861.578.236.254.414.56.537.918.131.348.197.738.197 1.17 0 .443-.066.848-.197 1.215a2.685 2.685 0 01-.537.93 2.589 2.589 0 01-.86.607c-.33.142-.697.212-1.101.212-.414 0-.786-.07-1.115-.212a2.607 2.607 0 01-.86-.592 2.711 2.711 0 01-.551-.918 3.818 3.818 0 01-.184-1.213c0-.433.062-.828.184-1.185.131-.358.315-.664.55-.918a2.61 2.61 0 01.861-.592c.33-.141.7-.212 1.115-.212zm20.081 0c.395 0 .757.019 1.086.057l.749.084v3.641c0 .348-.067.654-.198.917a1.995 1.995 0 01-.508.635c-.198.17-.423.297-.677.381a2.358 2.358 0 01-.748.127 1.94 1.94 0 01-.974-.24 2.395 2.395 0 01-.691-.649 3.217 3.217 0 01-.41-.931 4.818 4.818 0 01-.127-1.115c0-.433.057-.828.17-1.185a2.79 2.79 0 01.508-.918c.225-.254.489-.451.79-.592.31-.141.654-.212 1.03-.212zm8.085 0c.405 0 .772.07 1.101.212.339.131.626.324.861.578.235.254.414.56.537.918.131.348.197.738.197 1.17 0 .443-.066.848-.197 1.215a2.685 2.685 0 01-.537.93 2.588 2.588 0 01-.86.607c-.33.142-.697.212-1.102.212-.413 0-.785-.07-1.115-.212a2.603 2.603 0 01-.86-.592 2.712 2.712 0 01-.55-.918 3.818 3.818 0 01-.183-1.213c0-.433.06-.828.183-1.185.132-.358.315-.664.55-.918.245-.254.531-.451.86-.592.33-.141.702-.212 1.115-.212zm-47.096.39a2.798 2.798 0 01-.178.097c-.155.072-.311.143-.466.216l-.077.03c.106.252.165.568.165.96v.79H5.87c-.366 0-.728.034-1.086.1a2.851 2.851 0 00-.945.353c-.282.16-.513.37-.692.634-.169.264-.254.593-.254.988 0 .33.057.621.17.875.112.254.268.466.465.635.207.17.447.296.72.381.282.085.583.127.903.127.555 0 1.016-.103 1.383-.31a1.97 1.97 0 00.818-.847c.066.216.156.423.268.62.113.189.268.358.466.509l.48-.466c-.367-.395-.55-.955-.55-1.68V28.07c0-.448-.08-.826-.22-1.149zm-1.925 2.813H7.24v.833c-.01.292-.071.55-.184.776a1.599 1.599 0 01-.465.565 2.16 2.16 0 01-.65.352 2.676 2.676 0 01-.79.113c-.461 0-.818-.094-1.072-.282-.254-.197-.381-.531-.381-1.002 0-.282.06-.513.183-.691.132-.179.301-.315.508-.41.207-.103.438-.169.692-.197.263-.038.526-.057.79-.057zm33.528 0h1.369v.833c-.01.292-.07.55-.184.776a1.6 1.6 0 01-.466.565 2.16 2.16 0 01-.649.352 2.672 2.672 0 01-.79.113c-.461 0-.818-.094-1.072-.282-.254-.197-.381-.531-.381-1.002 0-.282.061-.513.183-.691.132-.179.301-.315.508-.41.207-.103.438-.169.692-.197.263-.038.526-.057.79-.057zm28.166 0h1.368v.833c-.009.292-.07.55-.183.776a1.599 1.599 0 01-.466.565c-.188.15-.405.267-.65.352a2.672 2.672 0 01-.79.113c-.46 0-.818-.094-1.072-.282-.254-.197-.38-.531-.38-1.002 0-.282.06-.513.183-.691.132-.179.301-.315.508-.41.207-.103.437-.169.691-.197.264-.038.527-.057.79-.057z"
        font-size="53.333" fill="#e13f4b" />
    <path
        d="M16.71 21.51s-4.157 2.406-5.999 3.496c-.903.535-1.749 1.171-2.69 1.637-.764.38-1.547.768-2.385.936-.734.147-1.543.308-2.245.047a1.38 1.38 0 01-.725-.655c-.15-.301-.15-.674-.093-1.006.122-.718.746-1.278.912-1.988.06-.258.13-.552.023-.795-.249-.566-.962-.781-1.403-1.216-.542-.535-1.21-1.011-1.52-1.707a2.067 2.067 0 01-.14-1.263c.084-.376.3-.75.608-.982.381-.29 1.192-.374 1.38-.398.187-.023 1.464.03 2.174.187.648.143 1.871.679 1.871.679M17.19 21.148s1.847-1.778 2.034-1.918c.187-.14 2.401-2.725 2.666-3.11.374-.546 2-2.759 2.806-4.374.6-1.202 1.233-2.424 1.497-3.741.214-1.07.286-2.21.047-3.274-.233-1.034-.662-2.097-1.404-2.854-.356-.363-.72-.614-1.215-.734-.455-.11-1.104-.125-1.544.033-.438.157-.788.523-1.076.889-.527.667-1.122 2.291-1.122 2.291l-.02.028"
        fill="none" stroke="#e13f4b" stroke-width=".8" stroke-linecap="round" stroke-linejoin="round" />
    <path
        d="M16.698 21.522c-.65.393-1.395.688-2.151.748-.98.078-2.292-.327-2.9-.514-.608-.187-2.088-.736-2.947-1.404-.457-.355-.851-.61-1.322-1.083-.439-.44-.903-.859-1.223-1.211-.29-.32-.63-.82-1.015-1.35-.427-.59-.733-1.58-.817-1.993a3.806 3.806 0 01.074-1.846c.237-.803.678-1.556 1.216-2.198.598-.714 1.364-1.293 2.17-1.76.895-.522 1.75-.766 2.413-1.423.394-.39.707-.89.86-1.422.465-1.61 1.246-2.71 1.339-2.879.129-.234 1.427-2.128 3.064-2.643.223-.07 1.039-.237 1.683-.046 1.015.3 1.66 1.26 2.129 2.221.6 1.231.867 2.963.982 4.49.108 1.434-.087 2.88-.28 4.304-.28 2.05-.637 3.928-1.264 6.13-.31 1.091-.584 2.188-1.216 3.13-.202.303-.484.56-.795.749z"
        fill="none" stroke="#e13f4b" stroke-width=".8" stroke-linecap="round" stroke-linejoin="round" />
    <path
        d="M10.105 23.364c-.041.033-.082.066-.483.31-.401.246-1.162.703-1.953 1.056-.79.353-1.612.6-2.433.849M8.708 22.305c-1.13-.193-2.26-.386-3.34-.868-1.08-.483-2.111-1.254-3.142-2.026M22.27 12.46c.63-1.287 1.262-2.573 1.57-3.73a7.749 7.749 0 00.195-2.967c-.098-.78-.277-1.31-.456-1.84M13.43 20.223c-1.162-.436-2.324-.873-3.318-1.582-.994-.71-1.82-1.692-2.646-2.674M17.78 14.517c.256-1.94.514-3.882.53-5.293.015-1.41-.211-2.292-.453-2.947-.242-.654-.499-1.083-.756-1.512M14.318 18.142c-1.064-.795-2.128-1.59-2.861-2.569-.734-.978-1.138-2.139-1.345-2.8-.207-.662-.217-.825-.227-.987M15.53 17.347c.05-.303.1-.606.23-1.592.13-.986.34-2.654.294-3.911-.046-1.258-.348-2.104-.565-2.605-.216-.502-.347-.659-.477-.816"
        fill="none" stroke="#e13f4b" stroke-width=".5" stroke-linecap="round" stroke-linejoin="round" />
</svg>